<?xml version="1.0" standalone="no"?>
<!DOCTYPE svg PUBLIC "-//W3C//DTD SVG 20010904//EN"
 "http://www.w3.org/TR/2001/REC-SVG-20010904/DTD/svg10.dtd">
<svg version="1.0" xmlns="http://www.w3.org/2000/svg"
 width="180.000000pt" height="180.000000pt" viewBox="0 0 180.000000 180.000000"
 preserveAspectRatio="xMidYMid meet">

<g transform="translate(0.000000,180.000000) scale(0.100000,-0.100000)"
fill="#000000" stroke="none">
<path d="M752 1327 l-143 -242 88 -3 c104 -4 83 -24 201 197 81 152 83 157 67
181 -9 14 -26 44 -37 68 -12 23 -24 42 -27 42 -4 0 -70 -109 -149 -243z"/>
<path d="M1018 1176 c-32 -47 -58 -87 -58 -90 0 -3 52 -6 116 -6 l116 0 -19
33 c-75 126 -88 147 -93 147 -3 0 -31 -38 -62 -84z"/>
<path d="M567 1013 c-13 -21 -49 -81 -79 -133 -30 -52 -69 -119 -87 -148 -17
-29 -31 -55 -31 -57 0 -3 120 -6 266 -7 l265 -3 142 -237 141 -238 263 0 c145
0 263 3 263 6 0 6 -83 149 -246 422 -41 68 -74 127 -74 131 0 5 -6 14 -14 20
-11 10 -26 -11 -80 -114 -36 -69 -66 -128 -66 -130 0 -3 11 -5 25 -5 14 0 25
-3 25 -8 0 -10 -163 -172 -173 -172 -4 0 -7 40 -7 89 l0 90 32 3 c31 3 32 6
70 118 21 63 41 123 44 133 5 17 -11 17 -300 15 -168 -2 -306 0 -306 5 0 4 29
61 65 128 36 66 65 122 65 125 0 2 -40 4 -90 4 l-90 0 -23 -37z"/>
<path d="M886 979 c-31 -46 -45 -74 -38 -78 10 -6 122 -7 374 -2 l78 1 -47 75
-46 75 -136 0 -136 -1 -49 -70z"/>
<path d="M294 553 c-31 -54 -83 -143 -117 -198 -33 -55 -68 -115 -79 -132
l-20 -33 269 0 269 0 39 67 c22 38 81 138 132 223 50 85 89 158 87 162 -3 4
-122 8 -264 8 l-259 0 -57 -97z"/>
</g>
</svg>
